HIERARCHY
ROOT Hips
{
	OFFSET 0.000000 83.214638 0.000000
	CHANNELS 6 Xposition Yposition Zposition Xrotation Yrotation Zrotation
	JOINT Pelvis
	{
		OFFSET 0.000000 0.000000 0.000000
		CHANNELS 3 Xrotation Yrotation Zrotation
		JOINT LeftUpLeg
		{
			OFFSET 8.479700 -4.795502 -0.379100
			CHANNELS 3 Xrotation Yrotation Zrotation
			JOINT LeftLeg
			{
				OFFSET 0.024144 -32.555107 0.112900
				CHANNELS 3 Xrotation Yrotation Zrotation
				JOINT LeftFoot
				{
					OFFSET -0.024144 -32.638630 -3.012600
					CHANNELS 3 Xrotation Yrotation Zrotation
					JOINT LeftToeBase
					{
						OFFSET 0.970200 -13.225400 11.864200
						CHANNELS 3 Xrotation Yrotation Zrotation
						End Site
						{
							OFFSET 0.000000 12.319262 0.000000
						}
					}
					JOINT LFootTongue
					{
						OFFSET 1.142400 -1.059800 6.665200
						CHANNELS 3 Xrotation Yrotation Zrotation
						End Site
						{
							OFFSET 0.000000 12.319262 0.000000
						}
					}
				}
				JOINT LeftPantLeg
				{
					OFFSET 0.918482 -16.533964 -2.284700
					CHANNELS 3 Xrotation Yrotation Zrotation
					End Site
					{
						OFFSET 0.350399 24.744368 0.000000
					}
				}
			}
		}
		JOINT RightUpLeg
		{
			OFFSET -8.479700 -4.795502 -0.379100
			CHANNELS 3 Xrotation Yrotation Zrotation
			JOINT RightLeg
			{
				OFFSET -0.023144 -32.555092 0.112900
				CHANNELS 3 Xrotation Yrotation Zrotation
				JOINT RightFoot
				{
					OFFSET 0.023144 -32.638641 -3.012700
					CHANNELS 3 Xrotation Yrotation Zrotation
					JOINT RightToeBase
					{
						OFFSET -0.970200 -13.225400 11.864200
						CHANNELS 3 Xrotation Yrotation Zrotation
						End Site
						{
							OFFSET 0.000000 12.319244 0.000000
						}
					}
					JOINT RFootTongue
					{
						OFFSET -1.142200 -1.059800 6.665200
						CHANNELS 3 Xrotation Yrotation Zrotation
						End Site
						{
							OFFSET 0.000000 12.319243 0.000000
						}
					}
				}
				JOINT RightPantLeg
				{
					OFFSET -0.919482 -16.533978 -2.284800
					CHANNELS 3 Xrotation Yrotation Zrotation
					End Site
					{
						OFFSET -0.350400 24.744419 0.000000
					}
				}
			}
		}
	}
	JOINT Spine
	{
		OFFSET 0.000000 7.722000 1.166200
		CHANNELS 3 Xrotation Yrotation Zrotation
		JOINT Spine1
		{
			OFFSET 0.000000 12.024101 0.248800
			CHANNELS 3 Xrotation Yrotation Zrotation
			JOINT Spine2
			{
				OFFSET 0.000000 11.502998 -0.491200
				CHANNELS 3 Xrotation Yrotation Zrotation
				JOINT Neck
				{
					OFFSET 0.000000 18.430702 -3.123100
					CHANNELS 3 Xrotation Yrotation Zrotation
					JOINT Head
					{
						OFFSET 0.000000 9.051102 1.034000
						CHANNELS 3 Xrotation Yrotation Zrotation
						JOINT HairB
						{
							OFFSET 0.208400 24.786102 24.822300
							CHANNELS 3 Xrotation Yrotation Zrotation
							End Site
							{
								OFFSET 0.000000 32.263779 0.000000
							}
						}
						JOINT HairA
						{
							OFFSET -7.081100 24.428299 23.196600
							CHANNELS 3 Xrotation Yrotation Zrotation
							End Site
							{
								OFFSET 0.000000 32.263779 0.000000
							}
						}
						JOINT Hat
						{
							OFFSET 16.728800 15.048294 -15.439601
							CHANNELS 3 Xrotation Yrotation Zrotation
							End Site
							{
								OFFSET 0.000000 32.263779 0.000000
							}
						}
					}
				}
				JOINT LeftShoulder
				{
					OFFSET 6.197800 13.665199 -4.064700
					CHANNELS 3 Xrotation Yrotation Zrotation
					JOINT LeftArm
					{
						OFFSET 7.778100 -0.187103 -1.709300
						CHANNELS 3 Xrotation Yrotation Zrotation
						JOINT LeftForeArm
						{
							OFFSET 22.049376 0.000000 0.000000
							CHANNELS 3 Xrotation Yrotation Zrotation
							JOINT LeftHand
							{
								OFFSET 23.009392 0.000000 0.000000
								CHANNELS 3 Xrotation Yrotation Zrotation
								JOINT LeftHandThumb1
								{
									OFFSET 3.507191 -2.063065 3.133727
									CHANNELS 3 Xrotation Yrotation Zrotation
									JOINT LeftHandThumb2
									{
										OFFSET 3.101337 -1.790558 1.790558
										CHANNELS 3 Xrotation Yrotation Zrotation
										JOINT LeftHandThumb3
										{
											OFFSET 3.058640 -1.765907 1.765906
											CHANNELS 3 Xrotation Yrotation Zrotation
											End Site
											{
												OFFSET -0.415260 3.926476 -0.049563
											}
										}
									}
								}
								JOINT LeftHandIndex1
								{
									OFFSET 11.334419 -0.901459 3.706815
									CHANNELS 3 Xrotation Yrotation Zrotation
									JOINT LeftHandIndex2
									{
										OFFSET 3.283112 0.000000 0.000000
										CHANNELS 3 Xrotation Yrotation Zrotation
										JOINT LeftHandIndex3
										{
											OFFSET 3.323853 0.000000 0.000000
											CHANNELS 3 Xrotation Yrotation Zrotation
											End Site
											{
												OFFSET -1.135597 3.097809 0.402452
											}
										}
									}
								}
								JOINT LeftHandMiddle1
								{
									OFFSET 11.335861 0.000000 0.000000
									CHANNELS 3 Xrotation Yrotation Zrotation
									JOINT LeftHandMiddle2
									{
										OFFSET 3.410492 0.000000 0.000000
										CHANNELS 3 Xrotation Yrotation Zrotation
										JOINT LeftHandMiddle3
										{
											OFFSET 3.312172 0.000000 0.000000
											CHANNELS 3 Xrotation Yrotation Zrotation
											End Site
											{
												OFFSET -1.150200 3.080154 0.400270
											}
										}
									}
								}
								JOINT LeftHandRing1
								{
									OFFSET 11.514786 -0.013176 -3.003090
									CHANNELS 3 Xrotation Yrotation Zrotation
									JOINT LeftHandRing2
									{
										OFFSET 3.053307 0.000000 0.000000
										CHANNELS 3 Xrotation Yrotation Zrotation
										JOINT LeftHandRing3
										{
											OFFSET 3.295807 0.000000 0.000000
											CHANNELS 3 Xrotation Yrotation Zrotation
											End Site
											{
												OFFSET -1.281006 3.013344 0.375733
											}
										}
									}
								}
								JOINT LeftHandPinky1
								{
									OFFSET 10.518692 -0.960396 -5.730441
									CHANNELS 3 Xrotation Yrotation Zrotation
									JOINT LeftHandPinky2
									{
										OFFSET 2.861649 0.000000 0.000000
										CHANNELS 3 Xrotation Yrotation Zrotation
										JOINT LeftHandPinky3
										{
											OFFSET 2.863380 0.000000 0.000000
											CHANNELS 3 Xrotation Yrotation Zrotation
											End Site
											{
												OFFSET -0.843597 2.711159 0.369971
											}
										}
									}
								}
							}
							JOINT LSleeve
							{
								OFFSET 6.676277 -0.344902 -1.011730
								CHANNELS 3 Xrotation Yrotation Zrotation
								End Site
								{
									OFFSET 0.000000 14.885353 0.000000
								}
							}
						}
					}
				}
				JOINT RightShoulder
				{
					OFFSET -6.197800 13.665199 -4.064700
					CHANNELS 3 Xrotation Yrotation Zrotation
					JOINT RightArm
					{
						OFFSET -7.778100 -0.187103 -1.709300
						CHANNELS 3 Xrotation Yrotation Zrotation
						JOINT RightForeArm
						{
							OFFSET -22.049376 0.000000 0.000000
							CHANNELS 3 Xrotation Yrotation Zrotation
							JOINT RightHand
							{
								OFFSET -23.009392 0.000000 0.000000
								CHANNELS 3 Xrotation Yrotation Zrotation
								JOINT RightHandThumb1
								{
									OFFSET -3.507191 -2.063065 3.133727
									CHANNELS 3 Xrotation Yrotation Zrotation
									JOINT RightHandThumb2
									{
										OFFSET -3.101337 -1.790558 1.790558
										CHANNELS 3 Xrotation Yrotation Zrotation
										JOINT RightHandThumb3
										{
											OFFSET -3.058640 -1.765907 1.765906
											CHANNELS 3 Xrotation Yrotation Zrotation
											End Site
											{
												OFFSET 0.415260 3.926476 -0.049563
											}
										}
									}
								}
								JOINT RightHandIndex1
								{
									OFFSET -11.334419 -0.901459 3.706815
									CHANNELS 3 Xrotation Yrotation Zrotation
									JOINT RightHandIndex2
									{
										OFFSET -3.283112 0.000000 0.000000
										CHANNELS 3 Xrotation Yrotation Zrotation
										JOINT RightHandIndex3
										{
											OFFSET -3.323853 0.000000 0.000000
											CHANNELS 3 Xrotation Yrotation Zrotation
											End Site
											{
												OFFSET 1.135597 3.097809 0.402452
											}
										}
									}
								}
								JOINT RightHandMiddle1
								{
									OFFSET -11.335861 0.000000 0.000000
									CHANNELS 3 Xrotation Yrotation Zrotation
									JOINT RightHandMiddle2
									{
										OFFSET -3.410492 0.000000 0.000000
										CHANNELS 3 Xrotation Yrotation Zrotation
										JOINT RightHandMiddle3
										{
											OFFSET -3.312172 0.000000 0.000000
											CHANNELS 3 Xrotation Yrotation Zrotation
											End Site
											{
												OFFSET 1.150200 3.080154 0.400270
											}
										}
									}
								}
								JOINT RightHandRing1
								{
									OFFSET -11.514786 -0.013176 -3.003090
									CHANNELS 3 Xrotation Yrotation Zrotation
									JOINT RightHandRing2
									{
										OFFSET -3.053307 0.000000 0.000000
										CHANNELS 3 Xrotation Yrotation Zrotation
										JOINT RightHandRing3
										{
											OFFSET -3.295807 0.000000 0.000000
											CHANNELS 3 Xrotation Yrotation Zrotation
											End Site
											{
												OFFSET 1.281006 3.013344 0.375733
											}
										}
									}
								}
								JOINT RightHandPinky1
								{
									OFFSET -10.518692 -0.960396 -5.730441
									CHANNELS 3 Xrotation Yrotation Zrotation
									JOINT RightHandPinky2
									{
										OFFSET -2.861649 0.000000 0.000000
										CHANNELS 3 Xrotation Yrotation Zrotation
										JOINT RightHandPinky3
										{
											OFFSET -2.863380 0.000000 0.000000
											CHANNELS 3 Xrotation Yrotation Zrotation
											End Site
											{
												OFFSET 0.843597 2.711159 0.369971
											}
										}
									}
								}
							}
							JOINT RSleeve
							{
								OFFSET -6.676277 -0.344902 -1.011730
								CHANNELS 3 Xrotation Yrotation Zrotation
								End Site
								{
									OFFSET 0.000000 14.885353 0.000000
								}
							}
						}
					}
				}
				JOINT Backpack
				{
					OFFSET 0.000000 -2.471497 36.677502
					CHANNELS 3 Xrotation Yrotation Zrotation
					End Site
					{
						OFFSET 0.000000 20.427315 0.000000
					}
				}
				JOINT Hood
				{
					OFFSET 0.000000 18.754097 -10.431000
					CHANNELS 3 Xrotation Yrotation Zrotation
					JOINT Hood1
					{
						OFFSET 0.000000 -5.011002 -7.685901
						CHANNELS 3 Xrotation Yrotation Zrotation
						End Site
						{
							OFFSET 0.000000 9.175140 0.000000
						}
					}
				}
				JOINT LHoodieString
				{
					OFFSET 5.250500 16.397697 3.089900
					CHANNELS 3 Xrotation Yrotation Zrotation
					JOINT LHoodieString1
					{
						OFFSET 0.257700 -6.364304 3.694600
						CHANNELS 3 Xrotation Yrotation Zrotation
						JOINT LHoodieString2
						{
							OFFSET 0.000000 -9.643799 2.679100
							CHANNELS 3 Xrotation Yrotation Zrotation
							End Site
							{
								OFFSET 0.000000 10.009018 0.000000
							}
						}
					}
				}
				JOINT RHoodieString
				{
					OFFSET -5.250500 16.397697 3.089900
					CHANNELS 3 Xrotation Yrotation Zrotation
					JOINT RHoodieString1
					{
						OFFSET -0.257700 -6.364304 3.694600
						CHANNELS 3 Xrotation Yrotation Zrotation
						JOINT RHoodieString2
						{
							OFFSET 0.000000 -9.643799 2.679100
							CHANNELS 3 Xrotation Yrotation Zrotation
							End Site
							{
								OFFSET 0.000000 10.009018 0.000000
							}
						}
					}
				}
			}
			JOINT LBackpack_Strap
			{
				OFFSET 15.223200 -7.719803 -6.610900
				CHANNELS 3 Xrotation Yrotation Zrotation
				End Site
				{
					OFFSET 0.000000 16.040596 0.000000
				}
			}
			JOINT RBackpack_Strap
			{
				OFFSET -15.223000 -7.719803 -6.610900
				CHANNELS 3 Xrotation Yrotation Zrotation
				End Site
				{
					OFFSET 0.000000 16.040596 0.000000
				}
			}
		}
	}
	JOINT BoyFacialAnim_Joint
	{
		OFFSET 1.000000 -82.208099 -1.550900
		CHANNELS 3 Xrotation Yrotation Zrotation
		End Site
		{
			OFFSET 0.000000 30.012791 0.000000
		}
	}
}
MOTION
Frames: 5
Frame Time: 0.016667
-0.258553 77.264542 0.130759 -6.087213 -43.035226 -4.012852 -0.000001 0.000001 0.000000 -27.449552 6.122083 14.191994 33.927623 -16.101100 -0.563916 -4.054923 2.172996 -7.657761 -0.000000 -0.000000 0.000000 -0.000000 -0.000000 0.000000 0.000000 0.000001 0.000000 -4.385036 -13.679751 -15.663837 32.735792 -9.018595 -0.425545 -20.517615 -4.055897 17.153002 -0.000000 0.000001 -0.000000 -0.000000 0.000001 -0.000000 -0.000000 -0.000000 -0.000003 5.834287 4.644729 -1.249551 11.836806 9.036859 -3.086775 11.836805 9.036864 -3.086778 -4.023277 -0.974174 0.382902 -6.479890 20.161238 -0.594156 -0.000000 0.000000 0.000000 -0.000000 0.000000 0.000000 -0.000000 0.000000 0.000000 1.392488 -0.696037 -7.877868 -14.270854 2.385507 -63.280774 9.855323 -47.499345 5.919340 16.172170 0.901954 18.796325 9.163411 4.814167 -5.499004 -0.335221 0.032297 0.783675 -0.000002 0.000002 -0.000002 -0.902004 -6.980963 -3.808341 0.033596 0.804081 -16.418750 -0.000003 -0.000000 -0.000005 1.947916 9.683070 -14.539693 -0.463669 -1.564330 -21.881339 0.000004 -0.000002 0.000003 2.605980 14.896786 -31.345186 -0.576906 -2.712555 -32.011416 -0.000002 -0.000000 0.000001 4.170710 18.494977 -34.987272 -0.707100 -5.788796 -39.372824 0.000001 -0.000000 -0.000004 -0.000001 0.000000 -0.000001 1.409761 9.464718 9.801444 1.234154 -24.280855 60.535523 -6.660161 41.888983 8.039863 6.224107 12.306675 11.672648 -8.895696 -4.903136 -0.383771 7.905242 -19.193001 -2.856835 -0.000000 0.000001 0.000001 -1.085600 -1.215459 4.525550 0.141676 -1.114000 16.942819 -0.000001 0.000002 0.000002 -0.663701 -2.903876 12.731708 -0.661482 1.814903 30.579057 0.000000 0.000002 -0.000001 2.423546 -7.404541 21.763324 -0.989841 3.764232 37.431213 -0.000002 0.000001 0.000004 3.480956 -10.055074 24.322584 -1.458333 7.871954 41.091982 -0.000003 0.000000 -0.000001 0.000002 -0.000001 0.000000 -0.000000 -0.000001 0.000001 -0.000000 -0.000001 0.000001 -0.000000 -0.000001 0.000001 -0.000000 -0.000001 0.000001 -0.000000 -0.000001 0.000001 -0.000002 -0.000002 0.000001 -0.000000 -0.000001 0.000001 -0.000000 -0.000001 0.000001 -0.000002 -0.000002 0.000001 -0.000001 -0.000000 0.000000 -0.000001 -0.000000 0.000000 -0.000001 0.000001 0.000000 
-0.221872 77.176445 -0.194511 -4.771021 -41.746973 -3.675136 0.000000 0.000000 -0.000000 -29.633589 6.737052 14.562752 34.406231 -14.440464 0.562718 -3.240646 0.495169 -7.587223 -0.000000 0.000002 -0.000000 -0.000000 0.000002 -0.000000 0.000000 0.000004 -0.000001 -5.259444 -13.781907 -15.035649 33.392829 -8.743452 -0.219723 -20.838718 -4.016618 17.138324 -0.000000 -0.000002 0.000000 -0.000000 -0.000002 0.000000 0.000000 -0.000001 -0.000000 5.878495 4.565226 -1.177231 11.918893 8.877105 -2.961022 11.918897 8.877112 -2.961025 -4.393510 -1.244333 0.135179 -6.869575 19.864932 -0.425487 -0.000000 -0.000000 0.000000 -0.000000 -0.000000 0.000000 -0.000000 -0.000000 0.000000 1.570212 -1.339776 -7.270732 -11.927844 2.709211 -62.623853 11.392410 -50.094913 6.156129 15.214487 1.370626 16.884511 9.193342 5.062698 -5.652781 -0.335222 0.032291 0.783641 -0.000001 0.000000 -0.000001 -0.796949 -6.938163 -3.289538 0.025953 0.778754 -16.637007 0.000001 -0.000002 -0.000002 1.901915 9.732995 -14.095533 -0.466266 -1.570602 -21.943777 -0.000002 0.000001 -0.000003 2.724090 14.868092 -31.650424 -0.590210 -2.733293 -32.416471 -0.000004 0.000000 -0.000002 4.124004 18.303018 -35.054020 -0.711782 -5.794185 -39.703996 -0.000000 0.000001 -0.000000 0.000000 0.000001 -0.000002 1.547677 9.347145 9.092341 0.556995 -22.906438 60.241367 -3.542695 42.903895 5.840081 7.677645 11.184454 10.633533 -8.650336 -5.353445 -1.233083 7.621899 -18.559349 -2.849198 0.000000 0.000001 -0.000002 -1.069535 -1.687650 5.364266 0.057427 -0.857536 19.622039 0.000001 0.000002 0.000002 -0.869355 -2.826912 14.623773 -0.785355 2.015678 33.206078 -0.000000 -0.000001 -0.000000 2.549551 -6.904368 24.300635 -1.124979 3.935003 39.943950 -0.000002 -0.000001 0.000002 3.462098 -9.593462 26.501025 -1.572227 7.998006 43.304335 -0.000000 0.000000 -0.000005 -0.000001 -0.000000 -0.000000 0.000001 -0.000000 0.000000 0.000001 -0.000000 0.000000 0.000001 -0.000000 0.000000 0.000001 -0.000000 0.000000 0.000001 -0.000000 -0.000001 -0.000001 -0.000002 0.000000 0.000001 -0.000000 0.000000 0.000001 -0.000000 -0.000001 -0.000001 -0.000002 0.000000 -0.000001 0.000000 -0.000000 -0.000001 0.000000 -0.000000 0.000000 0.000000 -0.000000 
-0.185934 77.051048 -0.564343 -3.377648 -40.461276 -3.481332 0.000000 0.000001 -0.000000 -32.015487 6.959227 15.284353 34.779740 -12.311337 1.329412 -2.310658 -1.340582 -7.670236 0.000000 -0.000002 -0.000000 0.000000 -0.000002 0.000000 -0.000000 0.000000 -0.000000 -6.567789 -14.729704 -13.987562 34.170402 -7.907824 -1.147323 -21.061284 -4.033616 17.438200 0.000000 0.000002 -0.000000 0.000000 0.000002 -0.000000 -0.000001 -0.000002 -0.000000 5.925053 4.474716 -1.074969 12.004169 8.695485 -2.784137 12.004171 8.695490 -2.784138 -4.402253 -1.432518 -0.308002 -7.743040 19.546099 -0.146669 -0.000001 0.000000 -0.000000 -0.000001 0.000000 -0.000000 -0.000001 0.000000 -0.000000 1.744166 -1.717845 -6.596195 -9.656325 2.899163 -62.029292 12.853447 -52.487046 6.201620 14.224885 1.951099 15.624063 9.323763 5.688847 -5.949669 -0.335225 0.032314 0.783681 0.000002 0.000001 -0.000001 -0.782992 -6.833236 -3.456147 0.013097 0.736816 -16.998785 0.000001 -0.000001 -0.000000 1.951583 9.750321 -14.576705 -0.472453 -1.585737 -22.093652 -0.000001 -0.000001 0.000002 3.028786 14.536827 -33.148445 -0.631076 -2.795180 -33.635728 -0.000002 -0.000000 -0.000002 4.069994 17.795421 -35.410921 -0.726085 -5.810332 -40.707490 -0.000001 0.000002 0.000002 0.000002 0.000001 0.000001 1.665581 8.672814 8.386893 -0.517096 -21.343880 59.835073 -0.867269 43.424048 3.841157 9.539186 9.854833 10.594294 -8.424787 -5.710903 -1.809461 7.405773 -18.074632 -2.841176 0.000000 0.000001 -0.000000 -1.037039 -2.082860 6.381585 -0.021290 -0.648463 21.839537 -0.000000 0.000001 0.000002 -1.065006 -2.741162 16.363909 -0.904112 2.190632 35.561134 0.000001 -0.000000 0.000003 2.642179 -6.488001 26.411322 -1.248708 4.078755 42.132910 -0.000001 -0.000000 0.000006 3.458244 -9.126062 28.634643 -1.708308 8.136574 45.833438 0.000001 -0.000003 0.000001 -0.000001 -0.000001 0.000000 0.000001 -0.000000 -0.000001 0.000001 -0.000000 -0.000001 0.000001 -0.000000 -0.000001 0.000001 -0.000000 -0.000001 0.000001 -0.000000 -0.000001 0.000001 0.000000 0.000001 0.000001 -0.000000 -0.000001 0.000001 -0.000000 -0.000001 0.000001 0.000000 0.000001 0.000002 0.000000 0.000000 0.000002 0.000000 0.000000 0.000000 0.000001 -0.000000 
-0.166757 76.882065 -0.979265 -1.934692 -39.178891 -3.360828 -0.000000 0.000003 0.000000 -34.632379 7.251187 16.259021 35.110437 -9.957193 1.975053 -1.401911 -3.443200 -7.715330 0.000000 0.000001 -0.000000 0.000000 0.000001 -0.000000 -0.000000 -0.000003 -0.000001 -8.093923 -15.842743 -12.759597 35.198833 -6.991349 -2.438924 -21.336623 -4.074375 17.863149 0.000000 -0.000001 0.000000 0.000000 -0.000001 0.000000 -0.000001 -0.000000 -0.000000 5.975393 4.377246 -0.971426 12.097062 8.496687 -2.607074 12.097066 8.496694 -2.607071 -4.402068 -1.602828 -0.704804 -8.692108 19.262918 0.109186 0.000002 0.000000 0.000000 0.000002 0.000000 0.000000 0.000002 0.000000 0.000000 1.920545 -2.204488 -5.946351 -7.362911 3.228190 -61.378245 14.333900 -54.674066 6.292072 13.459742 1.934162 13.988618 9.552669 6.521009 -6.281351 -0.335187 0.032297 0.783674 0.000003 -0.000001 -0.000006 -0.845292 -6.711942 -4.125692 -0.007806 0.670589 -17.571686 -0.000000 0.000001 -0.000005 2.022860 9.683101 -15.641244 -0.484471 -1.614732 -22.381758 -0.000000 -0.000001 0.000002 3.325924 14.067979 -34.924509 -0.685058 -2.872675 -35.188834 -0.000000 -0.000000 0.000001 4.168863 17.353800 -36.084033 -0.747015 -5.832940 -42.138627 -0.000001 0.000001 0.000002 -0.000001 -0.000000 0.000002 1.789072 8.381574 7.651966 -1.251852 -20.026753 59.610613 1.393150 43.948538 1.818025 11.192225 8.642881 11.211510 -7.961404 -5.906365 -2.217085 7.208782 -17.631836 -2.832161 0.000000 0.000001 -0.000005 -0.983916 -2.462986 7.369471 -0.096627 -0.468457 23.776577 -0.000000 0.000000 0.000004 -1.250099 -2.657362 17.910296 -1.020511 2.348286 37.744237 -0.000000 0.000001 0.000002 2.681787 -6.018254 28.379853 -1.362742 4.201922 44.070580 -0.000001 -0.000001 -0.000003 3.439292 -8.676249 30.575243 -1.840092 8.259776 48.182992 -0.000003 -0.000001 0.000002 0.000001 0.000000 -0.000001 -0.000002 0.000001 -0.000001 -0.000002 0.000001 -0.000001 -0.000002 0.000001 -0.000001 -0.000002 0.000001 -0.000001 -0.000002 0.000001 -0.000001 -0.000002 -0.000001 0.000000 -0.000002 0.000001 -0.000001 -0.000002 0.000001 -0.000001 -0.000002 -0.000001 0.000000 0.000001 0.000001 -0.000000 0.000001 0.000001 -0.000000 -0.000000 0.000003 0.000000 
-0.169330 76.632378 -1.494901 -0.426760 -37.903500 -3.314047 -0.000000 -0.000001 0.000000 -37.629640 7.707088 17.540006 35.468472 -7.583271 2.571340 -0.441833 -5.674173 -7.721534 -0.000000 0.000000 -0.000000 -0.000000 0.000000 -0.000000 0.000000 -0.000001 -0.000000 -9.980073 -17.088327 -11.310436 36.724411 -6.044392 -4.154282 -21.744652 -4.152373 18.391193 0.000000 -0.000003 0.000000 0.000000 -0.000003 0.000000 0.000001 -0.000002 0.000002 6.049641 4.271694 -0.875880 12.238725 8.275165 -2.450793 12.238715 8.275170 -2.450795 -4.719259 -1.744782 -0.984014 -9.495651 19.031743 0.296238 -0.000002 0.000000 -0.000000 -0.000002 0.000000 -0.000000 -0.000002 0.000000 -0.000000 2.070255 -2.775722 -5.543037 -4.738525 3.304522 -61.853360 16.932049 -58.793353 7.337176 12.753211 3.823475 13.910538 9.888285 7.437723 -6.570666 -0.335252 0.032354 0.783693 0.000002 -0.000001 0.000003 -1.041641 -6.596347 -5.588642 -0.048106 0.548805 -18.629904 0.000001 0.000001 -0.000001 2.057984 9.409578 -17.552700 -0.508971 -1.672764 -22.960171 -0.000003 -0.000000 0.000000 3.451848 13.503745 -36.432734 -0.748745 -2.958762 -36.950589 0.000000 -0.000000 -0.000002 4.736818 17.380110 -37.393930 -0.778046 -5.864529 -44.199817 0.000002 0.000002 -0.000003 0.000003 0.000002 -0.000000 1.923289 8.317057 6.899303 -1.712065 -18.994039 59.533541 3.482604 44.694924 -0.233176 12.536313 7.609630 12.470199 -7.005769 -5.805911 -2.456503 7.021484 -17.209961 -2.822152 -0.000001 0.000000 -0.000001 -0.905201 -2.884721 8.184543 -0.164237 -0.320027 25.395787 -0.000000 0.000001 0.000004 -1.413501 -2.588922 19.125190 -1.131397 2.487481 39.727126 -0.000001 0.000001 0.000002 2.604029 -5.344202 30.419067 -1.459706 4.300432 45.665818 -0.000002 -0.000001 0.000005 3.376842 -8.290467 32.115119 -1.941635 8.348038 49.934260 0.000001 -0.000001 -0.000003 0.000000 -0.000000 -0.000001 -0.000002 0.000002 -0.000001 -0.000002 0.000002 -0.000001 -0.000002 0.000002 -0.000001 -0.000002 0.000002 -0.000001 -0.000002 0.000002 -0.000001 -0.000004 -0.000000 -0.000000 -0.000002 0.000002 -0.000001 -0.000002 0.000002 -0.000001 -0.000004 -0.000000 -0.000000 -0.000001 0.000000 0.000000 -0.000001 0.000000 0.000000 -0.000000 -0.000001 0.000000 
